name C:\Users\u0101727\Documents\MyRepositories\upper-imu-dc\Results\main_tracking\Case_44\FLX01_linearAccelerations_bodyFrame.mot
datacolumns 4
datarows 141
range 2.01000000 3.41000000
endheader 
time	radius_imu_x	radius_imu_y	radius_imu_z	
          2.01000000	         -4.75085284	         -3.26899396	          7.65132643	
          2.02000000	         -4.75099916	         -3.38873108	          7.56960038	
          2.03000000	         -4.74632039	         -3.50872619	          7.48704805	
          2.04000000	         -4.73730305	         -3.62883456	          7.40395824	
          2.05000000	         -4.72440089	         -3.74889738	          7.32062607	
          2.06000000	         -4.70801853	         -3.86873851	          7.23736124	
          2.07000000	         -4.68853760	         -3.98816535	          7.15449295	
          2.08000000	         -4.66634788	         -4.10697557	          7.07235519	
          2.09000000	         -4.64185832	         -4.22496890	          6.99125522	
          2.10000000	         -4.61548562	         -4.34196210	          6.91143558	
          2.11000000	         -4.58762635	         -4.45780431	          6.83303954	
          2.12000000	         -4.55862410	         -4.57238758	          6.75609080	
          2.13000000	         -4.52874867	         -4.68564718	          6.68049565	
          2.14000000	         -4.49819763	         -4.79754964	          6.60606841	
          2.15000000	         -4.46711145	         -4.90807343	          6.53257296	
          2.16000000	         -4.43558167	         -5.01719070	          6.45976799	
          2.17000000	         -4.40364262	         -5.12485666	          6.38744467	
          2.18000000	         -4.37125429	         -5.23100774	          6.31544997	
          2.19000000	         -4.33828970	         -5.33556684	          6.24369313	
          2.20000000	         -4.30453850	         -5.43845174	          6.17213879	
          2.21000000	         -4.26973502	         -5.53958061	          6.10079812	
          2.22000000	         -4.23361041	         -5.63887141	          6.02972721	
          2.23000000	         -4.19595370	         -5.73623834	          5.95902563	
          2.24000000	         -4.15665819	         -5.83159258	          5.88881872	
          2.25000000	         -4.11573539	         -5.92485055	          5.81922062	
          2.26000000	         -4.07329331	         -6.01594652	          5.75029351	
          2.27000000	         -4.02948948	         -6.10484430	          5.68202362	
          2.28000000	         -3.98447976	         -6.19154420	          5.61432733	
          2.29000000	         -3.93838128	         -6.27608390	          5.54708672	
          2.30000000	         -3.89125671	         -6.35853370	          5.48020155	
          2.31000000	         -3.84311638	         -6.43898762	          5.41363922	
          2.32000000	         -3.79393400	         -6.51755180	          5.34747104	
          2.33000000	         -3.74367659	         -6.59433103	          5.28189152	
          2.34000000	         -3.69234492	         -6.66941579	          5.21721465	
          2.35000000	         -3.64001046	         -6.74287454	          5.15383877	
          2.36000000	         -3.58683326	         -6.81475399	          5.09218858	
          2.37000000	         -3.53305435	         -6.88508392	          5.03266087	
          2.38000000	         -3.47896422	         -6.95388194	          4.97559537	
          2.39000000	         -3.42485643	         -7.02115756	          4.92126866	
          2.40000000	         -3.37098315	         -7.08691631	          4.86989579	
          2.41000000	         -3.31753138	         -7.15116309	          4.82162721	
          2.42000000	         -3.26462542	         -7.21390476	          4.77653672	
          2.43000000	         -3.21234626	         -7.27515322	          4.73460493	
          2.44000000	         -3.16075525	         -7.33492854	          4.69570716	
          2.45000000	         -3.10991421	         -7.39326079	          4.65961150	
          2.46000000	         -3.05989836	         -7.45018987	          4.62598614	
          2.47000000	         -3.01080095	         -7.50576423	          4.59441331	
          2.48000000	         -2.96273232	         -7.56003847	          4.56440839	
          2.49000000	         -2.91581807	         -7.61306977	          4.53544505	
          2.50000000	         -2.87019414	         -7.66491431	          4.50698771	
          2.51000000	         -2.82599009	         -7.71562566	          4.47852901	
          2.52000000	         -2.78329755	         -7.76525376	          4.44962608	
          2.53000000	         -2.74213427	         -7.81384223	          4.41992566	
          2.54000000	         -2.70241899	         -7.86142499	          4.38917121	
          2.55000000	         -2.66396599	         -7.90802564	          4.35719328	
          2.56000000	         -2.62650069	         -7.95366064	          4.32389055	
          2.57000000	         -2.58969418	         -7.99834365	          4.28920886	
          2.58000000	         -2.55320932	         -8.04208753	          4.25312344	
          2.59000000	         -2.51674637	         -8.08490235	          4.21562675	
          2.60000000	         -2.48007773	         -8.12679104	          4.17672261	
          2.61000000	         -2.44306227	         -8.16774620	          4.13642479	
          2.62000000	         -2.40563693	         -8.20775243	          4.09475615	
          2.63000000	         -2.36779180	         -8.24679488	          4.05174360	
          2.64000000	         -2.32954178	         -8.28486972	          4.00740659	
          2.65000000	         -2.29090559	         -8.32199160	          3.96174207	
          2.66000000	         -2.25189616	         -8.35819595	          3.91471386	
          2.67000000	         -2.21252025	         -8.39353593	          3.86625581	
          2.68000000	         -2.17277995	         -8.42807498	          3.81629274	
          2.69000000	         -2.13267107	         -8.46187609	          3.76477193	
          2.70000000	         -2.09217976	         -8.49498983	          3.71168894	
          2.71000000	         -2.05127940	         -8.52744475	          3.65709616	
          2.72000000	         -2.00992548	         -8.55924355	          3.60109559	
          2.73000000	         -1.96804469	         -8.59036683	          3.54382620	
          2.74000000	         -1.92551863	         -8.62078387	          3.48545536	
          2.75000000	         -1.88217135	         -8.65046690	          3.42617772	
          2.76000000	         -1.83777617	         -8.67940354	          3.36621712	
          2.77000000	         -1.79208086	         -8.70760197	          3.30582113	
          2.78000000	         -1.74483920	         -8.73508897	          3.24524460	
          2.79000000	         -1.69584446	         -8.76190398	          3.18473241	
          2.80000000	         -1.64495194	         -8.78809393	          3.12450892	
          2.81000000	         -1.59209237	         -8.81371048	          3.06477585	
          2.82000000	         -1.53728303	         -8.83880804	          3.00571660	
          2.83000000	         -1.48062643	         -8.86344344	          2.94749773	
          2.84000000	         -1.42230008	         -8.88767467	          2.89026416	
          2.85000000	         -1.36253527	         -8.91155753	          2.83412923	
          2.86000000	         -1.30158898	         -8.93514018	          2.77916897	
          2.87000000	         -1.23972336	         -8.95845788	          2.72543140	
          2.88000000	         -1.17719525	         -8.98153023	          2.67296082	
          2.89000000	         -1.11424994	         -9.00436190	          2.62182802	
          2.90000000	         -1.05111422	         -9.02694555	          2.57215394	
          2.91000000	         -0.98798804	         -9.04926548	          2.52411808	
          2.92000000	         -0.92503855	         -9.07130055	          2.47795196	
          2.93000000	         -0.86240097	         -9.09302625	          2.43392430	
          2.94000000	         -0.80018819	         -9.11441504	          2.39232447	
          2.95000000	         -0.73850704	         -9.13543486	          2.35344646	
          2.96000000	         -0.67747775	         -9.15604551	          2.31757067	
          2.97000000	         -0.61725458	         -9.17619381	          2.28494126	
          2.98000000	         -0.55804326	         -9.19580964	          2.25574296	
          2.99000000	         -0.50010546	         -9.21480716	          2.23008589	
          3.00000000	         -0.44374288	         -9.23309350	          2.20800424	
          3.01000000	         -0.38926699	         -9.25058103	          2.18946586	
          3.02000000	         -0.33696850	         -9.26719714	          2.17438523	
          3.03000000	         -0.28709886	         -9.28288749	          2.16263382	
          3.04000000	         -0.23986778	         -9.29761361	          2.15404622	
          3.05000000	         -0.19545181	         -9.31134812	          2.14842358	
          3.06000000	         -0.15400188	         -9.32407097	          2.14553709	
          3.07000000	         -0.11563874	         -9.33576981	          2.14513377	
          3.08000000	         -0.08043689	         -9.34644599	          2.14694504	
          3.09000000	         -0.04840820	         -9.35612344	          2.15069679	
          3.10000000	         -0.01949832	         -9.36485413	          2.15612114	
          3.11000000	          0.00639924	         -9.37271513	          2.16297106	
          3.12000000	          0.02941793	         -9.37979790	          2.17103600	
          3.13000000	          0.04969274	         -9.38619557	          2.18015312	
          3.14000000	          0.06734217	         -9.39199169	          2.19021077	
          3.15000000	          0.08246212	         -9.39725447	          2.20114121	
          3.16000000	          0.09512631	         -9.40203424	          2.21290327	
          3.17000000	          0.10538844	         -9.40636068	          2.22545955	
          3.18000000	          0.11328945	         -9.41024746	          2.23875550	
          3.19000000	          0.11886942	         -9.41369960	          2.25270849	
          3.20000000	          0.12218050	         -9.41672222	          2.26720803	
          3.21000000	          0.12329582	         -9.41932593	          2.28212357	
          3.22000000	          0.12231260	         -9.42152814	          2.29731658	
          3.23000000	          0.11935210	         -9.42335275	          2.31265429	
          3.24000000	          0.11455747	         -9.42482991	          2.32802147	
          3.25000000	          0.10808726	         -9.42599563	          2.34332463	
          3.26000000	          0.10010368	         -9.42689168	          2.35848467	
          3.27000000	          0.09075896	         -9.42756631	          2.37342182	
          3.28000000	          0.08018396	         -9.42807566	          2.38804201	
          3.29000000	          0.06847932	         -9.42848338	          2.40223013	
          3.30000000	          0.05570898	         -9.42885679	          2.41584965	
          3.31000000	          0.04190088	         -9.42926064	          2.42874802	
          3.32000000	          0.02705836	         -9.42975120	          2.44076750	
          3.33000000	          0.01117624	         -9.43037170	          2.45175837	
          3.34000000	         -0.00574822	         -9.43114906	          2.46158993	
          3.35000000	         -0.02371223	         -9.43209235	          2.47015601	
          3.36000000	         -0.04270790	         -9.43319359	          2.47737560	
          3.37000000	         -0.06272361	         -9.43443101	          2.48319306	
          3.38000000	         -0.08373801	         -9.43577349	          2.48758088	
          3.39000000	         -0.10570990	         -9.43718583	          2.49054580	
          3.40000000	         -0.12856627	         -9.43863206	          2.49213402	
          3.41000000	         -0.15219264	         -9.44007682	          2.49243169	
